<svg xmlns="http://www.w3.org/2000/svg" viewBox="0 0 64 64" role="img" aria-label="CerchiaMi">
  <defs>
    <linearGradient id="bg" x1="10" y1="6" x2="58" y2="60" gradientUnits="userSpaceOnUse">
      <stop offset="0" stop-color="#101a19"/>
      <stop offset="0.62" stop-color="#172320"/>
      <stop offset="1" stop-color="#28443b"/>
    </linearGradient>
    <linearGradient id="accent" x1="19" y1="20" x2="51" y2="49" gradientUnits="userSpaceOnUse">
      <stop offset="0" stop-color="#ffffff"/>
      <stop offset="1" stop-color="#c9f4e6"/>
    </linearGradient>
  </defs>
  <rect width="64" height="64" rx="16" fill="url(#bg)"/>
  <circle cx="25" cy="24" r="7" fill="none" stroke="url(#accent)" stroke-width="4.4"/>
  <path d="M12.5 46.5c2.6-9 7.7-14.1 12.5-14.1 4.7 0 10 5.1 12.5 14.1" fill="none" stroke="url(#accent)" stroke-linecap="round" stroke-width="4.4"/>
  <circle cx="42.5" cy="28.2" r="5.7" fill="none" stroke="#c9f4e6" stroke-width="4"/>
  <path d="M34.8 46.5c2-6 5-9.4 8.4-9.4 3 0 5.9 2.2 8.5 6" fill="none" stroke="#c9f4e6" stroke-linecap="round" stroke-width="4"/>
  <path d="M49.2 12.4c2.1-2.1 6.3-.7 6.3 2.8 0 4.1-6.3 7.3-6.3 7.3s-6.3-3.2-6.3-7.3c0-3.5 4.2-4.9 6.3-2.8z" fill="#ff5348"/>
  <circle cx="49.2" cy="16.7" r="1.45" fill="#ffffff" opacity="0.68"/>
</svg>
