<svg xmlns="http://www.w3.org/2000/svg" viewBox="0 0 64 64" role="img" aria-label="CerchiaMi">
  <defs>
    <linearGradient id="bg" x1="8" y1="5" x2="58" y2="62" gradientUnits="userSpaceOnUse">
      <stop offset="0" stop-color="#0f1b18"/>
      <stop offset="0.62" stop-color="#172320"/>
      <stop offset="1" stop-color="#23453d"/>
    </linearGradient>
    <linearGradient id="mint" x1="20" y1="18" x2="48" y2="46" gradientUnits="userSpaceOnUse">
      <stop offset="0" stop-color="#f9fffc"/>
      <stop offset="1" stop-color="#23d0b0"/>
    </linearGradient>
    <filter id="soft" x="-18%" y="-18%" width="136%" height="136%">
      <feDropShadow dx="0" dy="5" stdDeviation="4" flood-color="#07110f" flood-opacity=".24"/>
    </filter>
  </defs>
  <rect width="64" height="64" rx="18" fill="url(#bg)"/>
  <g filter="url(#soft)">
    <path d="M44.2 17.8a18.2 18.2 0 1 0 0 28.4" fill="none" stroke="#f9fffc" stroke-width="5.2" stroke-linecap="round"/>
    <path d="M21.4 41.3c2.7-5.1 6.4-7.6 11.2-7.6 4.7 0 8.5 2.5 11.2 7.6" fill="none" stroke="url(#mint)" stroke-width="4.4" stroke-linecap="round"/>
    <circle cx="26.1" cy="26.1" r="4.8" fill="#f9fffc"/>
    <circle cx="38.1" cy="30.6" r="4.8" fill="#23d0b0"/>
    <path d="M47.4 14.8c2.1-2 6.1-.6 6.1 2.8 0 4-6.1 7.1-6.1 7.1s-6.1-3.1-6.1-7.1c0-3.4 4-4.8 6.1-2.8z" fill="#ff5348"/>
    <circle cx="48.5" cy="18.2" r="1.35" fill="#ffffff" opacity=".78"/>
  </g>
</svg>
